<svg xmlns="http://www.w3.org/2000/svg" width="1452" height="756" viewBox="0 0 1452 756" fill="none">
        <path d="M1344.23 209.22C1334.84 201.956 1321.63 203.532 1314.46 212.572L1194.18 364.149L1166.15 172.833C1164.12 161.326 1153.47 153.356 1142.05 155.047C1130.29 156.648 1122.32 167.301 1123.92 179.058L1159.45 418.789C1159.35 419.13 1159.35 419.13 1159.7 419.221C1159.85 419.994 1159.92 421.108 1160.08 421.882L1160.33 422.314C1160.49 423.087 1160.64 423.86 1161.14 424.725C1161.48 424.816 1161.39 425.157 1161.39 425.157C1161.89 426.022 1162.39 426.886 1162.64 427.319L1162.89 427.751C1163.39 428.615 1163.98 429.139 1164.57 429.663L1165.07 430.527C1165.32 430.96 1165.91 431.483 1166.59 431.666C1166.84 432.098 1166.84 432.098 1167.18 432.19L1167.09 432.531C1168.02 433.146 1168.7 433.328 1169.3 433.852L1169.64 433.943C1170.23 434.467 1171.25 434.741 1171.84 435.265C1171.84 435.265 1172.18 435.356 1172.52 435.447L1174.82 436.428C1175.84 436.702 1176.61 436.544 1177.64 436.818L1178.32 437C1179.09 436.842 1179.77 437.025 1180.55 436.867L1181.23 437.049C1182 436.891 1182.68 437.074 1183.46 436.916L1183.89 436.666C1183.89 436.666 1184.23 436.757 1184.32 436.416C1185 436.599 1185.78 436.441 1186.55 436.283C1186.64 435.942 1186.98 436.033 1187.41 435.784C1188.19 435.625 1188.96 435.467 1189.83 434.968L1189.92 434.627C1190.69 434.469 1191.55 433.97 1192.08 433.379C1192.42 433.47 1192.51 433.129 1192.51 433.129C1193.37 432.63 1194.24 432.131 1194.76 431.541L1194.85 431.2C1195.72 430.7 1196.33 429.769 1196.86 429.179L1196.95 428.838L1347.58 238.986C1354.84 229.605 1353.27 216.393 1344.23 209.22Z" fill="#eee"/>
        <path d="M1344.23 209.22C1334.84 201.956 1321.63 203.532 1314.46 212.572L1194.18 364.149L1166.15 172.833C1164.12 161.326 1153.47 153.356 1142.05 155.047C1130.29 156.648 1122.32 167.301 1123.92 179.058L1159.45 418.789C1159.35 419.13 1159.35 419.13 1159.7 419.221C1159.85 419.994 1159.92 421.108 1160.08 421.882L1160.33 422.314C1160.49 423.087 1160.64 423.86 1161.14 424.725C1161.48 424.816 1161.39 425.157 1161.39 425.157C1161.89 426.022 1162.39 426.886 1162.64 427.319L1162.89 427.751C1163.39 428.615 1163.98 429.139 1164.57 429.663L1165.07 430.527C1165.32 430.96 1165.91 431.483 1166.59 431.666C1166.84 432.098 1166.84 432.098 1167.18 432.19L1167.09 432.531C1168.02 433.146 1168.7 433.328 1169.3 433.852L1169.64 433.943C1170.23 434.467 1171.25 434.741 1171.84 435.265C1171.84 435.265 1172.18 435.356 1172.52 435.447L1174.82 436.428C1175.84 436.702 1176.61 436.544 1177.64 436.818L1178.32 437C1179.09 436.842 1179.77 437.025 1180.55 436.867L1181.23 437.049C1182 436.891 1182.68 437.074 1183.46 436.916L1183.89 436.666C1183.89 436.666 1184.23 436.757 1184.32 436.416C1185 436.599 1185.78 436.441 1186.55 436.283C1186.64 435.942 1186.98 436.033 1187.41 435.784C1188.19 435.625 1188.96 435.467 1189.83 434.968L1189.92 434.627C1190.69 434.469 1191.55 433.97 1192.08 433.379C1192.42 433.47 1192.51 433.129 1192.51 433.129C1193.37 432.63 1194.24 432.131 1194.76 431.541L1194.85 431.2C1195.72 430.7 1196.33 429.769 1196.86 429.179L1196.95 428.838L1347.58 238.986C1354.84 229.605 1353.27 216.393 1344.23 209.22Z" fill="#eee"/>
        <path fill-rule="evenodd" clip-rule="evenodd" d="M1243.37 193.061C1262.51 198.187 1282.17 186.834 1287.3 167.702C1292.42 148.571 1281.07 128.906 1261.94 123.78C1242.81 118.654 1223.14 130.007 1218.02 149.139C1212.89 168.27 1224.24 187.935 1243.37 193.061ZM1237.33 215.601C1268.91 224.062 1301.37 205.322 1309.84 173.742C1318.3 142.162 1299.56 109.702 1267.98 101.24C1236.4 92.7786 1203.94 111.519 1195.48 143.099C1187.01 174.679 1205.75 207.139 1237.33 215.601Z" fill="#9A7FB6"/>
        <path fill-rule="evenodd" clip-rule="evenodd" d="M1211.63 73.7579C1191.58 85.1793 1177.73 102.185 1173.43 118.216C1171.02 127.228 1161.76 132.576 1152.74 130.162C1143.73 127.747 1138.38 118.483 1140.8 109.471C1147.98 82.6801 1169.06 59.1239 1194.91 44.399C1221.01 29.5301 1254.01 22.4757 1286.73 31.2419C1319.44 40.0081 1344.49 62.6158 1359.67 88.5454C1374.69 114.224 1381.17 145.164 1373.99 171.955C1371.58 180.967 1362.31 186.315 1353.3 183.901C1344.29 181.486 1338.94 172.223 1341.36 163.21C1345.65 147.179 1342.16 125.528 1330.5 105.61C1319 85.9437 1300.65 69.9512 1277.98 63.8777C1255.32 57.8043 1231.43 62.4806 1211.63 73.7579Z" fill="#9A7FB6"/>
        <path d="M209.032 410.942L117.727 228.041C114.538 222.243 108.741 218.475 102.074 218.475H101.784C95.1177 218.765 89.3205 222.533 86.4219 228.62L1.78306 411.521C-2.27497 420.217 1.4932 430.362 10.189 434.42C12.5078 435.58 14.8267 436.159 17.4354 436.159C23.8123 436.159 30.1893 432.391 33.0878 426.014L53.9577 381.086C54.5374 381.376 55.1171 381.376 55.9867 381.376H155.119H155.408L178.017 426.594C182.365 435 192.8 438.478 201.206 434.13C209.902 430.072 213.38 419.637 209.032 410.942ZM69.8999 346.593L102.654 275.867L138.017 346.593H69.8999Z" fill="#eee"/>
        <path d="M352.374 309.781C339.331 297.607 322.519 290.65 304.548 290.65C291.214 290.65 278.46 294.708 267.736 301.375C265.417 294.418 259.04 289.491 251.214 289.491C241.648 289.491 233.822 297.027 233.822 306.592V417.608C233.822 427.174 241.648 435 251.214 435C260.779 435 268.605 427.174 268.605 417.608V362.825C268.605 342.245 284.837 325.433 304.548 325.433C313.533 325.433 322.229 328.912 328.606 334.999C335.852 341.665 346.577 341.086 353.244 334.129C359.911 327.172 359.331 316.158 352.374 309.781Z" fill="#eee"/>
        <path d="M439.267 434.42C399.266 434.42 366.512 401.956 366.512 361.666C366.512 321.665 399.266 288.911 439.267 288.911C479.267 288.911 512.021 321.665 512.311 361.955C512.021 401.956 479.267 434.42 439.267 434.42ZM439.267 324.564C418.687 324.564 402.165 341.086 402.165 361.666C402.165 382.246 418.687 398.768 439.267 398.768C459.847 398.768 476.369 382.246 476.369 361.666C476.369 341.086 459.847 324.564 439.267 324.564Z" fill="#eee"/>
        <path d="M601.436 435.87C563.754 435.87 532.739 403.115 532.739 363.115V307.752C532.739 298.186 539.986 290.36 548.971 290.36C558.247 290.36 567.233 298.186 567.233 307.752V363.115C567.233 383.985 584.624 400.797 601.436 400.797C621.146 400.797 635.929 383.985 635.929 363.115V310.071C635.929 300.215 646.074 292.679 653.9 292.679C662.886 292.679 670.422 300.215 670.422 310.071V363.115C670.422 403.115 639.407 435.87 601.436 435.87Z" fill="#eee"/>
        <path d="M762.507 290.36C749.463 290.36 737.579 294.128 727.144 300.795C724.825 293.839 718.448 288.911 710.912 288.911C701.347 288.911 693.521 296.737 693.521 306.303V417.029C693.521 426.594 701.347 434.42 710.912 434.42C720.477 434.42 728.304 426.594 728.304 417.029V367.753C728.304 347.752 739.898 325.143 762.507 325.143C780.768 325.143 795.841 341.665 795.841 362.245V417.029C795.841 426.594 803.377 434.42 813.232 434.42C822.798 434.42 830.334 426.594 830.334 417.029V362.245C830.334 322.535 799.899 290.36 762.507 290.36Z" fill="#eee"/>
        <path d="M974.938 214.997C965.372 214.997 957.546 223.113 957.546 232.678V300.505C945.662 292.969 931.749 288.331 916.676 288.331C876.385 288.331 843.341 321.375 843.341 361.666C843.341 402.246 876.385 435 916.676 435C932.038 435 946.531 430.362 958.126 422.246C960.445 429.493 967.111 434.42 974.938 434.42C984.793 434.42 992.619 426.594 992.619 417.029V232.678C992.619 223.113 984.793 214.997 974.938 214.997ZM916.676 399.927C895.516 399.927 878.414 382.825 878.414 361.666C878.414 340.506 895.516 323.404 916.676 323.404C937.836 323.404 954.937 340.506 954.937 361.666C954.937 382.825 937.836 399.927 916.676 399.927Z" fill="#eee"/>
        <path d="M209.032 677.942L117.727 495.041C114.538 489.243 108.741 485.475 102.074 485.475H101.784C95.1177 485.765 89.3205 489.533 86.4219 495.62L1.78306 678.521C-2.27497 687.217 1.4932 697.362 10.189 701.42C12.5078 702.58 14.8267 703.159 17.4354 703.159C23.8123 703.159 30.1893 699.391 33.0878 693.014L53.9577 648.086C54.5374 648.376 55.1171 648.376 55.9867 648.376H155.119H155.408L178.017 693.594C182.365 702 192.8 705.478 201.206 701.13C209.902 697.072 213.38 686.637 209.032 677.942ZM69.8999 613.593L102.654 542.867L138.017 613.593H69.8999Z" fill="#eee"/>
        <path d="M357.882 702.58H251.214C244.257 702.58 237.88 698.522 235.271 692.145C232.373 685.768 233.822 678.521 238.75 673.304L317.302 591.854H251.214C241.648 591.854 233.822 584.027 233.822 574.462C233.822 564.897 241.648 557.07 251.214 557.07H357.882C364.838 557.07 371.215 561.418 373.824 567.795C376.723 574.172 375.273 581.419 370.346 586.346L291.794 668.086H357.882C367.447 668.086 375.273 675.913 375.273 685.478C375.273 695.043 367.447 702.58 357.882 702.58Z" fill="#eee"/>
        <path d="M527.338 628.666C528.498 625.767 529.657 622.868 529.657 620.26C530.237 610.694 525.02 599.97 520.382 591.854C509.947 574.462 493.135 562.288 473.425 558.52C469.077 557.65 465.019 557.36 460.671 557.36C420.38 557.36 388.206 590.404 388.206 630.115C388.206 670.405 420.38 702.87 460.671 702.87C477.193 702.87 499.512 697.652 515.454 682.29C522.411 675.623 522.701 664.318 515.744 657.652C509.077 650.695 498.063 650.695 491.106 657.362C483.57 664.608 469.946 668.376 460.671 668.376C442.7 668.376 427.917 655.622 423.859 639.101H513.135C520.092 639.101 525.02 634.173 527.338 628.666ZM460.671 592.433C473.714 592.433 484.439 598.81 490.236 609.825H428.786C435.743 599.1 447.337 592.433 460.671 592.433Z" fill="#eee"/>
        <path d="M664.03 576.781C650.986 564.607 634.174 557.65 616.203 557.65C602.869 557.65 590.116 561.708 579.391 568.375C577.072 561.418 570.695 556.491 562.869 556.491C553.303 556.491 545.477 564.027 545.477 573.592V684.608C545.477 694.174 553.303 702 562.869 702C572.434 702 580.26 694.174 580.26 684.608V629.825C580.26 609.245 596.493 592.433 616.203 592.433C625.189 592.433 633.884 595.912 640.261 601.999C647.508 608.665 658.233 608.086 664.899 601.129C671.566 594.172 670.986 583.158 664.03 576.781Z" fill="#eee"/>
        <path d="M755.56 555.041C740.487 555.041 726.574 559.679 714.689 567.215V499.388C714.689 489.823 706.863 481.707 697.298 481.707C687.443 481.707 679.616 489.823 679.616 499.388V683.739C679.616 693.304 687.443 701.13 697.298 701.13C705.124 701.13 711.791 695.913 714.11 688.956C725.704 697.072 740.197 701.71 755.56 701.71C795.85 701.71 828.894 668.956 828.894 628.376C828.894 587.796 795.85 555.041 755.56 555.041ZM755.56 666.637C734.4 666.637 717.298 649.536 717.298 628.376C717.298 607.216 734.4 590.114 755.56 590.114C776.429 590.114 793.821 607.216 793.821 628.376C793.821 649.536 776.429 666.637 755.56 666.637Z" fill="#eee"/>
        <path d="M971.851 557.07C962.286 557.07 956.488 564.607 956.488 573.592V575.042C944.025 564.897 929.532 558.23 912.14 558.23C873.299 558.23 841.994 589.825 841.994 628.376C841.994 666.927 873.299 698.232 912.14 698.232C929.532 698.232 944.025 691.855 956.488 681.13V684.608C956.488 693.594 962.286 701.13 971.851 701.13C981.416 701.13 988.663 693.594 988.663 684.608V573.592C988.663 564.607 981.416 557.07 971.851 557.07ZM912.14 664.318C892.14 664.318 875.618 648.376 875.618 628.376C875.618 608.376 892.14 592.143 912.14 592.143C931.85 592.143 948.372 608.376 948.372 628.376C948.372 648.376 931.85 664.318 912.14 664.318Z" fill="#eee"/>
        <path d="M1037.09 531.853C1026.95 531.853 1018.83 523.737 1018.83 514.171V512.722C1018.83 502.577 1026.95 494.751 1037.09 494.751C1046.66 494.751 1054.77 502.577 1054.77 512.722V514.171C1054.77 523.737 1046.66 531.853 1037.09 531.853ZM1037.09 702C1026.95 702 1018.83 693.884 1018.83 684.029V572.143C1018.83 562.288 1026.95 554.462 1037.09 554.462C1046.66 554.462 1054.77 562.288 1054.77 572.143V684.029C1054.77 693.884 1046.66 702 1037.09 702Z" fill="#eee"/>
        <path d="M1103.94 531.853C1093.8 531.853 1085.68 523.737 1085.68 514.171V512.722C1085.68 502.577 1093.8 494.751 1103.94 494.751C1113.51 494.751 1121.62 502.577 1121.62 512.722V514.171C1121.62 523.737 1113.51 531.853 1103.94 531.853ZM1122.2 571.853C1122.2 562.868 1114.67 555.331 1105.97 555.331C1096.41 555.331 1089.16 562.868 1089.16 571.853C1089.16 591.564 1089.16 610.984 1089.16 630.115V697.362C1089.16 710.116 1081.62 721.421 1068.29 721.421C1062.78 721.421 1057.57 719.681 1053.8 715.913C1047.42 709.826 1036.41 710.116 1030.32 716.493C1023.65 723.16 1024.23 733.885 1031.19 740.261C1041.04 749.537 1054.09 755.044 1068.29 755.044C1098.15 755.044 1122.2 730.406 1122.2 700.551C1122.2 699.971 1122.2 699.681 1122.2 699.391V698.232V571.853Z" fill="#eee"/>
        <path d="M1270.77 557.07C1261.2 557.07 1255.41 564.607 1255.41 573.592V575.042C1242.94 564.897 1228.45 558.23 1211.06 558.23C1172.22 558.23 1140.91 589.825 1140.91 628.376C1140.91 666.927 1172.22 698.232 1211.06 698.232C1228.45 698.232 1242.94 691.855 1255.41 681.13V684.608C1255.41 693.594 1261.2 701.13 1270.77 701.13C1280.33 701.13 1287.58 693.594 1287.58 684.608V573.592C1287.58 564.607 1280.33 557.07 1270.77 557.07ZM1211.06 664.318C1191.06 664.318 1174.54 648.376 1174.54 628.376C1174.54 608.376 1191.06 592.143 1211.06 592.143C1230.77 592.143 1247.29 608.376 1247.29 628.376C1247.29 648.376 1230.77 664.318 1211.06 664.318Z" fill="#eee"/>
        <path d="M1383.84 557.36C1370.79 557.36 1358.91 561.128 1348.47 567.795C1346.15 560.839 1339.78 555.911 1332.24 555.911C1322.68 555.911 1314.85 563.737 1314.85 573.302V684.029C1314.85 693.594 1322.68 701.42 1332.24 701.42C1341.81 701.42 1349.63 693.594 1349.63 684.029V634.753C1349.63 614.752 1361.23 592.143 1383.84 592.143C1402.1 592.143 1417.17 608.665 1417.17 629.245V684.029C1417.17 693.594 1424.71 701.42 1434.56 701.42C1444.13 701.42 1451.66 693.594 1451.66 684.029V629.245C1451.66 589.535 1421.23 557.36 1383.84 557.36Z" fill="#eee"/>
        </svg>